<?xml version="1.0" standalone="no"?><!-- Generator: Gravit.io --><svg xmlns="http://www.w3.org/2000/svg" xmlns:xlink="http://www.w3.org/1999/xlink" style="isolation:isolate" viewBox="341.672 165.166 157.317 157.317" width="157.317" height="157.317"><path d=" M 365.875 165.166 L 365.875 177.267 L 359.824 177.267 C 349.853 177.267 341.672 185.448 341.672 195.419 L 341.672 304.331 C 341.672 314.302 349.853 322.482 359.824 322.482 L 480.837 322.482 C 490.808 322.482 498.989 314.302 498.989 304.331 L 498.989 195.419 C 498.989 185.448 490.808 177.267 480.837 177.267 L 474.786 177.267 L 474.786 165.166 L 462.685 165.166 L 462.685 177.267 L 377.976 177.267 L 377.976 165.166 L 365.875 165.166 Z  M 359.824 189.368 L 365.875 189.368 L 365.875 201.47 L 377.976 201.47 L 377.976 189.368 L 462.685 189.368 L 462.685 201.47 L 474.786 201.47 L 474.786 189.368 L 480.837 189.368 C 484.237 189.368 486.887 192.019 486.887 195.419 L 486.887 213.571 L 353.773 213.571 L 353.773 195.419 C 353.773 192.019 356.424 189.368 359.824 189.368 Z  M 353.773 225.672 L 486.887 225.672 L 486.887 304.331 C 486.887 307.731 484.237 310.381 480.837 310.381 L 359.824 310.381 C 358.213 310.401 356.663 309.77 355.524 308.631 C 354.385 307.492 353.754 305.941 353.773 304.331 L 353.773 225.672 Z  M 390.077 237.773 L 390.077 249.875 L 402.178 249.875 L 402.178 237.773 L 390.077 237.773 Z  M 414.28 237.773 L 414.28 249.875 L 426.381 249.875 L 426.381 237.773 L 414.28 237.773 Z  M 438.482 237.773 L 438.482 249.875 L 450.584 249.875 L 450.584 237.773 L 438.482 237.773 Z  M 462.685 237.773 L 462.685 249.875 L 474.786 249.875 L 474.786 237.773 L 462.685 237.773 Z  M 365.875 261.976 L 365.875 274.077 L 377.976 274.077 L 377.976 261.976 L 365.875 261.976 Z  M 390.077 261.976 L 390.077 274.077 L 402.178 274.077 L 402.178 261.976 L 390.077 261.976 Z  M 414.28 261.976 L 414.28 274.077 L 426.381 274.077 L 426.381 261.976 L 414.28 261.976 Z  M 438.482 261.976 L 438.482 274.077 L 450.584 274.077 L 450.584 261.976 L 438.482 261.976 Z  M 462.685 261.976 L 462.685 274.077 L 474.786 274.077 L 474.786 261.976 L 462.685 261.976 Z  M 365.875 286.179 L 365.875 298.28 L 377.976 298.28 L 377.976 286.179 L 365.875 286.179 Z  M 390.077 286.179 L 390.077 298.28 L 402.178 298.28 L 402.178 286.179 L 390.077 286.179 Z  M 414.28 286.179 L 414.28 298.28 L 426.381 298.28 L 426.381 286.179 L 414.28 286.179 Z " fill="rgb(0,0,0)"/></svg>