<?xml version="1.0" standalone="no"?><!-- Generator: Gravit.io --><svg xmlns="http://www.w3.org/2000/svg" xmlns:xlink="http://www.w3.org/1999/xlink" style="isolation:isolate" viewBox="699 -384.215 639 639" width="639" height="639"><path d=" M 1018.5 -384.215 C 842.336 -384.215 699 -240.88 699 -64.715 C 699 111.449 842.336 254.785 1018.5 254.785 C 1194.664 254.785 1338 111.449 1338 -64.715 C 1338 -240.88 1194.664 -384.215 1018.5 -384.215 Z  M 1033.144 97.697 L 1033.144 134.972 L 1006.519 134.972 L 1006.519 97.697 C 970.575 93.703 913.331 81.722 910.669 -7.472 L 938.625 -7.472 C 935.962 76.397 1017.169 76.397 1019.831 76.397 C 1098.375 76.397 1101.038 23.147 1101.038 11.179 C 1101.038 -83.34 918.656 -16.79 918.656 -141.915 C 918.656 -167.208 931.969 -223.121 1006.519 -227.115 L 1006.519 -264.403 L 1033.144 -264.403 L 1033.144 -227.128 C 1097.044 -224.465 1123.669 -169.884 1121.006 -132.609 L 1093.05 -132.609 C 1091.719 -155.24 1083.745 -205.828 1019.831 -205.828 C 957.262 -205.828 945.281 -169.884 945.281 -139.265 C 945.281 -47.409 1127.663 -108.647 1127.663 11.166 C 1127.663 24.478 1122.337 91.041 1033.144 97.697 Z " fill="rgb(0,0,0)"/></svg>