<?xml version="1.0" standalone="no"?><!-- Generator: Gravit.io --><svg xmlns="http://www.w3.org/2000/svg" xmlns:xlink="http://www.w3.org/1999/xlink" style="isolation:isolate" viewBox="1433 -407.875 667 667" width="667" height="667"><path d=" M 1857.455 259.125 L 1675.545 259.125 C 1667.173 259.125 1660.386 252.338 1660.386 243.966 L 1660.386 31.739 L 1448.159 31.739 C 1439.787 31.739 1433 24.952 1433 16.58 L 1433 -165.329 C 1433 -173.701 1439.787 -180.488 1448.159 -180.488 L 1660.386 -180.488 L 1660.386 -392.716 C 1660.386 -401.088 1667.173 -407.875 1675.545 -407.875 L 1857.455 -407.875 C 1865.827 -407.875 1872.614 -401.088 1872.614 -392.716 L 1872.614 -180.488 L 2084.841 -180.488 C 2093.213 -180.488 2100 -173.701 2100 -165.329 L 2100 16.58 C 2100 24.952 2093.213 31.739 2084.841 31.739 L 1872.614 31.739 L 1872.614 243.966 C 1872.614 252.338 1865.827 259.125 1857.455 259.125 Z " fill="rgb(0,0,0)"/></svg>