<?xml version="1.0" standalone="no"?><!-- Generator: Gravit.io --><svg xmlns="http://www.w3.org/2000/svg" xmlns:xlink="http://www.w3.org/1999/xlink" style="isolation:isolate" viewBox="2205.968 -227.149 40.064 40.064" width="40.064" height="40.064"><path d=" M 2245.982 -214.421 L 2235.15 -214.421 C 2237.244 -215.421 2239.071 -216.643 2239.912 -217.58 C 2241.989 -219.945 2240.951 -221.755 2239.518 -223.374 C 2238.122 -224.945 2236.367 -226.517 2233.198 -225.342 C 2230.888 -224.485 2227.361 -222.183 2226.269 -219.913 C 2226.251 -219.993 2226.215 -220.088 2226.197 -220.167 C 2225.338 -222.834 2222.025 -225.596 2219.447 -226.644 C 2216.815 -227.708 2214.433 -226.977 2212.374 -224.453 C 2210.53 -222.199 2210.476 -219.85 2212.213 -217.691 C 2213.073 -216.627 2214.881 -215.405 2216.922 -214.421 L 2206 -214.421 L 2206 -203.912 L 2207.576 -203.912 L 2207.576 -187.117 L 2244.424 -187.117 L 2244.424 -203.912 L 2246 -203.912 L 2246 -214.421 L 2245.982 -214.421 L 2245.982 -214.421 Z  M 2243.833 -205.817 L 2231.389 -205.817 L 2231.389 -212.516 L 2243.833 -212.516 L 2243.833 -205.817 Z  M 2229.241 -212.516 L 2229.241 -205.817 L 2222.741 -205.817 L 2222.741 -212.516 L 2229.241 -212.516 Z  M 2228.99 -203.912 L 2228.99 -189.022 L 2222.974 -189.022 L 2222.974 -203.912 L 2228.99 -203.912 Z  M 2227.952 -218.977 C 2228.525 -220.612 2231.64 -222.866 2233.932 -223.723 C 2235.561 -224.326 2236.403 -224.041 2237.943 -222.294 C 2239.339 -220.723 2239.429 -219.913 2238.319 -218.659 C 2237.638 -217.881 2236.098 -216.881 2234.344 -216.024 C 2235.006 -216.389 2235.526 -216.738 2235.758 -217.024 C 2236.439 -217.818 2237.083 -219.469 2236.26 -220.437 C 2235.848 -220.913 2235.006 -221.374 2233.269 -220.786 C 2230.888 -219.993 2228.543 -216.945 2227.361 -215.199 C 2227.361 -216.516 2227.486 -217.659 2227.952 -218.977 L 2227.952 -218.977 Z  M 2229.366 -215.294 C 2230.602 -216.961 2232.356 -218.945 2233.878 -219.453 C 2234.29 -219.596 2234.594 -219.643 2234.774 -219.643 C 2234.917 -219.643 2234.988 -219.612 2235.006 -219.596 C 2235.185 -219.389 2235.024 -218.5 2234.505 -217.897 C 2234.129 -217.421 2231.873 -216.342 2229.366 -215.294 L 2229.366 -215.294 Z  M 2213.789 -218.691 C 2212.535 -220.262 2212.571 -221.755 2213.932 -223.421 C 2215.83 -225.739 2217.352 -225.549 2218.605 -225.041 C 2220.754 -224.183 2223.601 -221.771 2224.281 -219.675 C 2224.702 -218.381 2224.902 -217.038 2224.872 -215.691 C 2223.619 -217.469 2221.47 -220.056 2219.303 -220.77 C 2217.567 -221.358 2216.707 -220.897 2216.313 -220.421 C 2215.49 -219.453 2216.134 -217.802 2216.815 -217.008 C 2217.298 -216.437 2218.874 -215.627 2220.539 -214.865 C 2217.71 -215.754 2214.756 -217.5 2213.789 -218.691 L 2213.789 -218.691 Z  M 2223.243 -215.294 C 2220.736 -216.342 2218.48 -217.437 2218.086 -217.897 C 2217.567 -218.5 2217.406 -219.374 2217.585 -219.596 C 2217.603 -219.628 2217.692 -219.643 2217.817 -219.643 C 2217.996 -219.643 2218.301 -219.596 2218.713 -219.453 C 2220.252 -218.945 2222.007 -216.961 2223.243 -215.294 L 2223.243 -215.294 Z  M 2208.149 -212.516 L 2220.593 -212.516 L 2220.593 -205.817 L 2208.149 -205.817 L 2208.149 -212.516 Z  M 2209.706 -203.912 L 2220.825 -203.912 L 2220.825 -189.022 L 2209.706 -189.022 L 2209.706 -203.912 L 2209.706 -203.912 Z  M 2242.258 -189.022 L 2231.139 -189.022 L 2231.139 -203.912 L 2242.258 -203.912 L 2242.258 -189.022 Z " fill="rgb(0,0,0)" vector-effect="non-scaling-stroke" stroke-width="0.064" stroke="rgb(0,0,0)" stroke-linejoin="miter" stroke-linecap="butt" stroke-miterlimit="4"/></svg>