<?xml version="1.0" standalone="no"?><!-- Generator: Gravit.io --><svg xmlns="http://www.w3.org/2000/svg" xmlns:xlink="http://www.w3.org/1999/xlink" style="isolation:isolate" viewBox="169.806 394.104 135.152 147.467" width="135.152" height="147.467"><path d=" M 261.975 477.941 C 273.072 482.164 282.878 489.204 290.426 498.368 C 294.159 502.908 297.287 507.912 299.732 513.257 C 302.207 518.663 303.956 535.658 304.957 541.571 L 293.44 541.571 C 292.141 535.108 289.71 517.585 286.257 511.97 C 282.912 506.515 278.673 501.662 273.717 497.615 C 268.757 493.579 263.156 490.404 257.146 488.221 C 250.97 485.967 244.443 484.827 237.868 484.855 C 232.671 484.855 227.649 485.537 222.804 486.89 C 218.057 488.205 213.5 490.128 209.246 492.61 C 200.832 497.53 193.827 504.535 188.907 512.949 C 186.429 517.203 184.506 521.757 183.187 526.501 C 181.829 531.341 181.152 536.368 181.152 541.571 L 169.806 541.571 C 169.806 534.476 170.851 527.656 172.952 521.094 C 177.081 508.074 185.015 496.59 195.733 488.122 C 201.167 483.791 207.254 480.351 213.767 477.93 C 207.09 473.558 201.876 468.063 198.12 461.447 C 194.363 454.825 192.493 447.515 192.493 439.48 C 192.493 433.215 193.676 427.325 196.041 421.797 C 198.315 416.403 201.609 411.499 205.743 407.354 C 209.89 403.223 214.793 399.927 220.186 397.647 C 225.776 395.27 231.794 394.065 237.868 394.105 C 244.133 394.105 250.023 395.282 255.551 397.647 C 260.945 399.922 265.849 403.219 269.994 407.354 C 274.125 411.502 277.421 416.405 279.701 421.797 C 282.078 427.387 283.283 433.406 283.243 439.48 C 283.25 455.107 275.214 469.639 261.975 477.941 L 261.975 477.941 Z " fill-rule="evenodd" fill="rgb(35,31,32)"/></svg>